# xmcd CD database file generated by Grip 2.95
# 
# Track frame offsets:
#       150
#       18031
#       33813
#       51969
#       65558
#       85241
#       101459
#       114806
#       136546
#       151999
#       156750
#       174286
#       193430
#       215032
# 
# Disc length: 3090 seconds
# 
# Revision: 3
# Processed by: cddbd v1.4PL0 Copyright (c) Steve Scherf et al.
# Submitted via: Grip 2.95
# 
DISCID=ac0c100e
DTITLE=Dermot Byrne - The Acustic Catalog
DYEAR=1900
DGENRE=
TTITLE0=Leaving Blues
TTITLE1=Hard Times Killin' Floor
TTITLE2=Yonder Comes The Dawn
TTITLE3=John The Revelator
TTITLE4=I Aint' Got No Lovin' Baby Now
TTITLE5=Goin' Up To Brownsville
TTITLE6=Good Good Good Preachin'
TTITLE7=Sundown
TTITLE8=How Long Blues
TTITLE9=Julian Johnston
TTITLE10=Pony Blues
TTITLE11=Just Cant Keep From Crying Sometimes
TTITLE12=Highway '61
TTITLE13=You Don't Know My Mind
EXTD=
EXTT0=
EXTT1=
EXTT2=
EXTT3=
EXTT4=
EXTT5=
EXTT6=
EXTT7=
EXTT8=
EXTT9=
EXTT10=
EXTT11=
EXTT12=
EXTT13=
PLAYORDER=
